<svg width="150" height="156" viewBox="0 0 150 156" fill="none" xmlns="http://www.w3.org/2000/svg">
<path d="M2.72302 52.8105C2.72302 52.8105 14.8733 46.0828 30.1849 55.3857" stroke="#6817B3" stroke-width="5.45224" stroke-miterlimit="10" stroke-linecap="round"/>
<path d="M112.501 31.8148C112.501 31.8148 98.612 31.8148 89.7232 47.3704" stroke="#6877FF" stroke-width="5.45224" stroke-miterlimit="10" stroke-linecap="round"/>
<path d="M5.03068 78.8889L4.3889 79.3152C3.5528 79.8705 3.32342 80.9997 3.87658 81.8373L4.34112 82.5406C4.89428 83.3782 6.0205 83.607 6.8566 83.0516L7.49838 82.6254C8.33449 82.07 8.56386 80.9409 8.01071 80.1033L7.54616 79.3999C6.993 78.5624 5.86679 78.3336 5.03068 78.8889Z" fill="#D19EFF"/>
<path d="M63.3025 21.1463L62.5345 21.2084C61.5341 21.2892 60.7864 22.1659 60.8646 23.1666L60.9303 24.007C61.0085 25.0076 61.883 25.7533 62.8834 25.6725L63.6514 25.6105C64.6519 25.5297 65.3995 24.6529 65.3213 23.6523L65.2556 22.8119C65.1774 21.8112 64.303 21.0655 63.3025 21.1463Z" fill="#6817B3"/>
<path d="M52.8281 48.816L52.7948 49.6586C52.7552 50.6616 53.536 51.5078 54.5389 51.5488L55.3084 51.5803C56.3113 51.6212 57.1564 50.8414 57.1961 49.8385L57.2294 48.9958C57.269 47.9929 56.4882 47.1466 55.4853 47.1056L54.7158 47.0742C53.7129 47.0332 52.8678 47.813 52.8281 48.816Z" fill="#D19EFF"/>
<path d="M100.828 1.81598L100.795 2.6586C100.755 3.66155 101.536 4.50781 102.539 4.54879L103.308 4.58024C104.311 4.62122 105.156 3.84139 105.196 2.83844L105.229 1.99582C105.269 0.992879 104.488 0.14661 103.485 0.105631L102.716 0.0741891C101.713 0.0332094 100.868 0.813036 100.828 1.81598Z" fill="#D19EFF"/>
<path d="M13.1045 16.1152L12.3156 16.0803C11.3129 16.036 10.4759 16.8133 10.4462 17.8166L10.4218 18.6402C10.3921 19.6435 11.1809 20.4928 12.1837 20.5371L12.9726 20.5721C13.9753 20.6164 14.8123 19.8391 14.842 18.8358L14.8664 18.0122C14.8961 17.0089 14.1073 16.1596 13.1045 16.1152Z" fill="#6877FF"/>
<path d="M40.6446 79.6101L39.8557 79.5752C38.853 79.5308 38.016 80.3081 37.9863 81.3114L37.9619 82.135C37.9322 83.1383 38.721 83.9876 39.7238 84.032L40.5127 84.0669C41.5154 84.1112 42.3524 83.3339 42.3821 82.3306L42.4065 81.507C42.4362 80.5037 41.6474 79.6544 40.6446 79.6101Z" fill="#6877FF"/>
<path d="M135.22 50.3625L134.547 49.9498C133.691 49.4252 132.582 49.6999 132.07 50.5632L131.65 51.2719C131.138 52.1352 131.417 53.2603 132.273 53.7849L132.946 54.1976C133.802 54.7221 134.91 54.4475 135.422 53.5842L135.843 52.8755C136.355 52.0121 136.076 50.887 135.22 50.3625Z" fill="#C7CCFB"/>
<path d="M107.118 126.967C109.08 125.834 109.712 122.276 110.001 116.58C110.364 107.814 110.362 99.3995 110.575 89.6174C110.664 84.0282 110.788 78.576 110.813 73.9513C110.602 67.3278 111.294 60.253 105.732 58.3023C97.2245 56.3554 80.4826 63.7555 72.2708 68.3828C64.4596 73.0676 48.5559 84.4805 48.1835 92.8668C48.6116 98.245 55.3224 101.186 60.2613 104.24C64.5622 106.673 69.6268 109.445 74.7292 112.282C80.9366 115.714 87.1744 119.199 92.2879 121.995C96.2851 124.175 104.619 128.882 107.066 126.997L107.118 126.967Z" fill="#A442FD"/>
<mask id="mask0_7_1684" style="mask-type:luminance" maskUnits="userSpaceOnUse" x="48" y="57" width="63" height="71">
<path d="M107.119 126.97C109.081 125.837 109.713 122.279 110.002 116.583C110.366 107.817 110.363 99.402 110.577 89.6199C110.666 84.0307 110.79 78.5785 110.814 73.9538C110.603 67.3303 111.296 60.2555 105.734 58.3048C97.2258 56.3579 80.4839 63.758 72.2721 68.3853C64.4609 73.0701 48.5573 84.483 48.1849 92.8693C48.6129 98.2475 55.3238 101.188 60.2627 104.242C64.5636 106.676 69.6281 109.447 74.7306 112.284C80.938 115.717 87.1757 119.202 92.2892 121.997C96.2864 124.178 104.621 128.885 107.067 127L107.119 126.97Z" fill="white"/>
</mask>
<g mask="url(#mask0_7_1684)">
<path fill-rule="evenodd" clip-rule="evenodd" d="M120.268 92.4938C120.27 92.4935 120.272 92.4932 121.082 98.1176C121.892 103.742 121.894 103.742 121.895 103.742L121.903 103.741C121.905 103.74 121.905 103.74 121.904 103.74L121.879 103.744C121.85 103.749 121.797 103.757 121.721 103.77C121.568 103.795 121.322 103.839 120.992 103.902C120.331 104.03 119.335 104.241 118.069 104.561C115.534 105.202 111.943 106.276 107.82 107.99C99.5439 111.429 89.3394 117.354 81.1409 127.321L72.3637 120.102C82.0902 108.277 94.0505 101.405 103.458 97.495C108.177 95.5341 112.307 94.2957 115.283 93.5431C116.773 93.1663 117.979 92.9098 118.833 92.7446C119.26 92.662 119.599 92.6021 119.841 92.5615C119.963 92.5411 120.06 92.5255 120.132 92.5143C120.168 92.5087 120.198 92.5042 120.221 92.5007L120.252 92.4962L120.263 92.4945L120.268 92.4938Z" fill="#D19EFF"/>
<path fill-rule="evenodd" clip-rule="evenodd" d="M122.348 65.5883C122.351 65.5882 122.353 65.588 122.69 71.2605C123.027 76.9329 123.029 76.9328 123.031 76.9327L123.032 76.9326C123.024 76.9332 123.005 76.9344 122.976 76.9366C122.918 76.9408 122.82 76.9483 122.683 76.9601C122.41 76.9838 121.983 77.0246 121.418 77.0903C120.287 77.2217 118.605 77.4526 116.488 77.8445C112.249 78.6293 106.301 80.0539 99.5686 82.6013C86.0917 87.7005 69.6697 97.2161 57.3356 114.932L48.0085 108.439C62.0122 88.3244 80.5991 77.6275 95.5468 71.9718C103.026 69.1418 109.645 67.5533 114.419 66.6695C116.809 66.227 118.745 65.9596 120.106 65.8014C120.786 65.7223 121.324 65.6704 121.703 65.6375C121.893 65.6211 122.043 65.6095 122.152 65.6015C122.207 65.5976 122.251 65.5946 122.284 65.5924L122.327 65.5896L122.342 65.5887L122.348 65.5883ZM123.037 76.9323L123.034 76.9325L123.032 76.9326C123.035 76.9324 123.037 76.9323 123.037 76.9323ZM123.037 76.9323L123.037 76.9323L123.037 76.9323Z" fill="#D19EFF"/>
</g>
</svg>
